<svg xmlns="http://www.w3.org/2000/svg" viewBox="0 0 64 64" fill="none">
  <rect width="64" height="64" rx="12" fill="#0f1b35"/>

  <!-- Body + tail + neck + head/snout -->
  <path fill="#a8c7fa" d="
    M4,33 C8,30 14,29 20,29
    C24,29 27,27 30,25
    C33,22 36,18 40,15
    C42,14 44,14 46,15
    C48,16 52,19 56,23
    L58,27 L58,30
    C54,29 50,29 46,28
    C42,29 39,31 37,33
    C35,35 34,38 34,40
    C28,40 20,38 14,37
    C10,37 6,36 4,36
    Z"/>

  <!-- Leg (thigh + shin + foot) -->
  <path fill="#a8c7fa" d="
    M29,40
    C28,44 27,48 26,52
    C25,56 24,59 26,62
    L30,63 L34,63
    C35,62 34,61 33,60
    C31,57 30,54 31,51
    C32,48 34,46 33,43
    C32,41 30,40 29,40
    Z"/>

  <!-- Sickle claw (raised second digit) -->
  <path fill="#a8c7fa" d="
    M26,52 C24,49 22,46 24,43
    C25,42 27,42 27,44
    C26,47 25,50 26,52 Z"/>

  <!-- Short arm -->
  <path fill="#a8c7fa" d="
    M34,33 C32,36 30,38 28,41
    C28,42 29,42 30,41
    C31,39 32,37 34,35
    C35,34 35,33 34,33 Z"/>

  <!-- Eye -->
  <circle cx="46" cy="18" r="2.2" fill="#0f1b35"/>
</svg>
